<svg width="60" height="59" viewBox="0 0 60 59" fill="none" xmlns="http://www.w3.org/2000/svg">
<path d="M43.0814 27.1446C42.6342 23.658 40.6568 20.5128 37.5843 18.4009C34.5117 16.289 30.5957 15.3835 26.6976 15.8834C22.7996 16.3834 19.2388 18.2479 16.7987 21.0669C14.3586 23.8858 13.239 27.4282 13.6862 30.9148L23.3971 29.6693C23.2453 28.4863 23.6252 27.2844 24.4531 26.328C25.281 25.3716 26.4891 24.739 27.8117 24.5693C29.1342 24.3997 30.4629 24.707 31.5054 25.4235C32.5478 26.14 33.2187 27.2071 33.3705 28.3901L43.0814 27.1446Z" fill="#194BF0"/>
<path d="M43.2854 30.026C43.7286 33.5131 42.6048 37.0542 40.1614 39.8703C37.718 42.6864 34.1551 44.5468 30.2564 45.0422C26.3578 45.5376 22.4428 44.6275 19.3727 42.512C16.3027 40.3966 14.329 37.2491 13.8858 33.7619L23.5982 32.5277C23.7485 33.7109 24.4182 34.7788 25.4598 35.4965C26.5015 36.2143 27.8298 36.523 29.1525 36.355C30.4753 36.1869 31.6841 35.5557 32.5131 34.6002C33.3421 33.6448 33.7234 32.4433 33.5731 31.2602L43.2854 30.026Z" fill="#FDB713"/>
<circle cx="28.5" cy="30.5" r="3.5" fill="#194BF0"/>
<circle cx="29" cy="30" r="25" stroke="#194BF0" stroke-width="8"/>
<path d="M57.791 20.6633C59.8268 28.4441 59.7092 32.8108 57.7667 40.5872L48.0223 37.0593C48.5931 32.0516 48.5539 29.3707 48.0373 24.7533L57.791 20.6633Z" fill="#FDB713"/>
<path d="M2.90884 13.3173C7.83259 6.95786 11.3645 4.38731 18.7115 1.18311L21.86 11.0566C17.5437 13.6589 15.4432 15.3254 12.0995 18.5512L2.90884 13.3173Z" fill="#FDB713"/>
</svg>
